<?xml version="1.0" encoding="utf-8"?>
<!-- Generator: Adobe Illustrator 17.1.0, SVG Export Plug-In . SVG Version: 6.00 Build 0)  -->
<!DOCTYPE svg PUBLIC "-//W3C//DTD SVG 1.1//EN" "http://www.w3.org/Graphics/SVG/1.1/DTD/svg11.dtd">
<svg version="1.1" id="Layer_1" xmlns="http://www.w3.org/2000/svg" xmlns:xlink="http://www.w3.org/1999/xlink" x="0px" y="0px"
	 width="100px" height="35px" viewBox="0 0 100 35" enable-background="new 0 0 100 35" xml:space="preserve">
<g opacity="0.4">
	<path d="M7.383,6.377C5.438,7.192,3.3,9.491,2.625,12.378c-0.855,3.657,2.704,5.204,2.995,4.698
		c0.344-0.596-0.638-0.798-0.84-2.695c-0.261-2.451,0.879-5.19,2.313-6.392c0.267-0.223,0.254,0.087,0.254,0.662
		c0,1.028-0.057,10.255-0.057,12.181c0,2.606-0.108,3.429-0.301,4.242c-0.196,0.824-0.511,1.381-0.272,1.595
		c0.267,0.24,1.405-0.331,2.064-1.25c0.79-1.103,1.067-2.427,1.116-3.866c0.06-1.734,0.057-4.486,0.06-6.055
		c0.002-1.439,0.024-5.654-0.025-8.188C9.92,6.689,8.196,6.037,7.383,6.377z"/>
	<path d="M97.081,20.067c-0.282,0-0.411,0.291-0.517,0.78c-0.37,1.702-0.758,2.086-1.259,2.086c-0.559,0-1.062-0.843-1.191-2.53
		c-0.102-1.327-0.085-3.769,0.045-6.198c0.027-0.499-0.111-0.993-1.45-1.479c-0.576-0.209-1.413-0.517-1.83,0.489
		c-1.178,2.844-1.639,5.101-1.747,6.018c-0.006,0.047-0.064,0.057-0.074-0.054c-0.069-0.734-0.224-2.069-0.243-4.873
		c-0.004-0.547-0.12-1.013-0.724-1.394c-0.392-0.248-1.582-0.685-2.01-0.164c-0.371,0.426-0.801,1.572-1.248,2.93
		c-0.363,1.104-0.616,1.85-0.616,1.85s0.005-2.978,0.009-4.108c0.002-0.426-0.291-0.568-0.379-0.594
		c-0.397-0.115-1.179-0.308-1.51-0.308c-0.41,0-0.51,0.229-0.51,0.562c0,0.044-0.065,3.921-0.065,6.633c0,0.118,0,0.246,0.001,0.383
		c-0.226,1.246-0.961,2.938-1.76,2.938c-0.8,0-1.177-0.707-1.177-3.94c0-1.886,0.057-2.706,0.084-4.07
		c0.016-0.786,0.047-1.389,0.046-1.526c-0.006-0.42-0.732-0.631-1.07-0.71c-0.339-0.079-0.634-0.109-0.865-0.096
		c-0.326,0.018-0.556,0.232-0.556,0.526c0,0.158,0.002,0.457,0.002,0.457c-0.42-0.66-1.095-1.119-1.544-1.252
		c-1.21-0.359-2.473-0.041-3.425,1.292c-0.757,1.059-1.213,2.258-1.393,3.981c-0.131,1.26-0.088,2.537,0.145,3.617
		c-0.282,1.219-0.805,1.719-1.379,1.719c-0.832,0-1.435-1.358-1.365-3.707c0.046-1.545,0.355-2.629,0.693-4.198
		c0.144-0.669,0.027-1.019-0.267-1.354c-0.269-0.308-0.843-0.465-1.668-0.272c-0.588,0.138-1.428,0.286-2.196,0.4
		c0,0,0.046-0.185,0.084-0.511c0.2-1.711-1.659-1.572-2.253-1.026c-0.354,0.326-0.595,0.711-0.687,1.403
		c-0.145,1.098,0.75,1.616,0.75,1.616c-0.294,1.345-1.014,3.102-1.757,4.372c-0.398,0.681-0.703,1.185-1.096,1.721
		c-0.001-0.2-0.003-0.399-0.003-0.598c-0.009-2.827,0.029-5.053,0.045-5.855c0.016-0.786,0.048-1.373,0.046-1.51
		c-0.004-0.307-0.184-0.423-0.557-0.57c-0.33-0.13-0.72-0.22-1.124-0.251c-0.51-0.04-0.818,0.231-0.81,0.551
		c0.002,0.06,0.002,0.432,0.002,0.432c-0.42-0.66-1.095-1.119-1.544-1.252c-1.21-0.359-2.473-0.041-3.425,1.292
		c-0.757,1.059-1.252,2.545-1.393,3.968c-0.131,1.327-0.107,2.454,0.072,3.404c-0.192,0.951-0.746,1.945-1.371,1.945
		c-0.8,0-1.255-0.707-1.255-3.94c0-1.886,0.057-2.706,0.084-4.069c0.016-0.786,0.047-1.389,0.046-1.526
		c-0.006-0.42-0.732-0.631-1.07-0.71c-0.353-0.082-0.659-0.112-0.893-0.095c-0.309,0.023-0.527,0.3-0.527,0.506
		c0,0.206,0,0.476,0,0.476c-0.42-0.66-1.095-1.119-1.544-1.252c-1.21-0.359-2.466-0.036-3.425,1.292
		c-0.626,0.866-1.132,1.825-1.393,3.949c-0.075,0.614-0.109,1.189-0.104,1.726c-0.249,1.526-1.351,3.284-2.253,3.284
		c-0.527,0-1.03-1.023-1.03-3.203c0-2.904,0.18-7.04,0.21-7.438c0,0,1.139-0.019,1.359-0.022c0.568-0.006,1.083,0.007,1.839-0.032
		c0.38-0.019,0.745-1.381,0.353-1.55c-0.177-0.076-1.432-0.143-1.93-0.154c-0.418-0.009-1.583-0.096-1.583-0.096
		s0.104-2.745,0.129-3.035c0.021-0.242-0.292-0.366-0.471-0.442c-0.436-0.184-0.826-0.273-1.288-0.368
		c-0.639-0.132-0.929-0.003-0.985,0.536c-0.085,0.818-0.129,3.215-0.129,3.215c-0.469,0-2.07-0.092-2.539-0.092
		c-0.436,0-0.906,1.874-0.304,1.897c0.693,0.027,1.901,0.05,2.701,0.074c0,0-0.036,4.203-0.036,5.501c0,0.138,0.001,0.271,0.001,0.4
		c-0.441,2.297-1.993,3.537-1.993,3.537c0.333-1.519-0.348-2.66-1.574-3.626c-0.452-0.356-1.344-1.03-2.342-1.768
		c0,0,0.578-0.57,1.091-1.716c0.363-0.812,0.379-1.741-0.513-1.946c-1.473-0.339-2.688,0.743-3.05,1.898
		c-0.281,0.895-0.131,1.559,0.419,2.248c0.04,0.05,0.084,0.102,0.129,0.154c-0.332,0.641-0.789,1.504-1.176,2.173
		c-1.074,1.858-1.885,3.327-2.498,3.327c-0.49,0-0.483-1.492-0.483-2.889c0-1.204,0.089-3.015,0.16-4.889
		c0.024-0.62-0.287-0.973-0.806-1.293c-0.316-0.194-0.99-0.576-1.38-0.576c-0.584,0-2.269,0.08-3.862,4.685
		c-0.201,0.581-0.595,1.638-0.595,1.638l0.034-5.539c0-0.13-0.069-0.256-0.228-0.341c-0.268-0.146-0.985-0.444-1.622-0.444
		c-0.304,0-0.455,0.141-0.455,0.423l-0.056,8.666c0,0.658,0.017,1.427,0.082,1.762c0.065,0.336,0.17,0.61,0.3,0.773
		c0.13,0.162,0.28,0.286,0.528,0.338c0.231,0.047,1.494,0.21,1.559-0.273c0.079-0.579,0.082-1.204,0.745-3.538
		c1.033-3.633,2.379-5.405,3.012-6.035c0.111-0.11,0.237-0.117,0.231,0.064c-0.027,0.796-0.122,2.787-0.186,4.478
		c-0.171,4.525,0.652,5.364,1.828,5.364c0.9,0,2.169-0.894,3.529-3.158c0.848-1.411,1.671-2.794,2.262-3.791
		c0.412,0.382,0.875,0.792,1.337,1.231c1.074,1.019,1.427,1.988,1.193,2.907c-0.179,0.703-0.853,1.427-2.052,0.723
		c-0.35-0.205-0.499-0.364-0.85-0.595c-0.189-0.124-0.477-0.162-0.65-0.031c-0.449,0.339-0.706,0.769-0.853,1.303
		c-0.143,0.519,0.377,0.793,0.916,1.033c0.464,0.206,1.461,0.394,2.096,0.415c2.477,0.083,4.461-1.196,5.843-4.495
		c0.247,2.849,1.3,4.461,3.128,4.461c1.222,0,2.448-1.58,2.984-3.134c0.154,0.634,0.382,1.185,0.676,1.651
		c1.409,2.232,4.142,1.752,5.515-0.144c0.424-0.586,0.489-0.796,0.489-0.796c0.2,1.79,1.642,2.415,2.467,2.415
		c0.924,0,1.879-0.437,2.547-1.943c0.078,0.164,0.164,0.32,0.257,0.467c1.409,2.232,4.142,1.752,5.515-0.144
		c0.065-0.089,0.121-0.17,0.17-0.242l0.04,1.176c0,0-0.783,0.718-1.264,1.159c-2.119,1.942-3.728,3.415-3.847,5.13
		c-0.151,2.187,1.622,3,2.965,3.106c1.424,0.113,2.645-0.674,3.395-1.776c0.66-0.97,1.091-3.057,1.06-5.118
		c-0.013-0.825-0.033-1.875-0.05-3c0.744-0.864,1.582-1.955,2.353-3.233c0.841-1.392,1.742-3.262,2.203-4.718
		c0,0,0.783,0.007,1.618-0.048c0.267-0.017,0.344,0.037,0.295,0.233c-0.06,0.237-1.055,4.078-0.147,6.637
		c0.622,1.752,2.025,2.315,2.856,2.315c0.973,0,1.904-0.735,2.403-1.827c0.06,0.122,0.123,0.239,0.192,0.348
		c1.409,2.232,4.132,1.749,5.515-0.144c0.312-0.427,0.489-0.796,0.489-0.796c0.297,1.852,1.737,2.425,2.562,2.425
		c0.859,0,1.675-0.352,2.337-1.918c0.028,0.69,0.071,1.253,0.14,1.431c0.042,0.109,0.286,0.245,0.464,0.311
		c0.786,0.291,1.588,0.154,1.885,0.094c0.206-0.042,0.366-0.206,0.388-0.632c0.057-1.118,0.022-2.996,0.361-4.392
		c0.569-2.343,1.1-3.252,1.351-3.701c0.141-0.252,0.3-0.294,0.306-0.027c0.012,0.54,0.039,2.125,0.259,4.255
		c0.162,1.566,0.378,2.492,0.544,2.785c0.474,0.838,1.06,0.877,1.537,0.877c0.303,0,0.938-0.084,0.881-0.617
		c-0.028-0.26,0.021-1.866,0.582-4.174c0.366-1.507,0.977-2.869,1.197-3.367c0.081-0.184,0.119-0.039,0.118-0.011
		c-0.046,1.038-0.151,4.433,0.272,6.29c0.573,2.516,2.231,2.797,2.809,2.797c1.234,0,2.243-0.938,2.582-3.407
		C97.565,20.526,97.444,20.067,97.081,20.067z M45.408,18.54c-0.071,1.307-0.326,2.399-0.735,3.192
		c-0.74,1.436-2.205,1.891-2.85-0.184c-0.466-1.496-0.307-3.536-0.113-4.638c0.287-1.636,1.007-2.795,2.131-2.685
		C44.994,14.338,45.555,15.821,45.408,18.54z M56.683,18.559c-0.066,1.234-0.386,2.473-0.735,3.174
		c-0.72,1.446-2.226,1.898-2.85-0.184c-0.427-1.422-0.325-3.263-0.113-4.423c0.274-1.505,0.938-2.901,2.131-2.901
		C56.275,14.225,56.847,15.498,56.683,18.559z M56.978,26.977c-0.016,2.251-0.37,4.224-1.13,4.798
		c-1.078,0.813-2.526,0.203-2.226-1.439c0.265-1.453,1.52-2.938,3.358-4.751C56.981,25.584,56.985,25.998,56.978,26.977z
		 M76.442,18.572c-0.063,1.355-0.363,2.414-0.735,3.16c-0.72,1.446-2.216,1.895-2.85-0.184c-0.346-1.133-0.362-3.025-0.113-4.606
		c0.253-1.611,0.96-2.827,2.131-2.717C76.029,14.334,76.569,15.821,76.442,18.572z"/>
</g>
</svg>
